<?xml version="1.0" standalone="no"?>
<!DOCTYPE svg PUBLIC "-//W3C//DTD SVG 20010904//EN"
 "http://www.w3.org/TR/2001/REC-SVG-20010904/DTD/svg10.dtd">
<svg version="1.0" xmlns="http://www.w3.org/2000/svg"
 width="50.000000pt" height="35.000000pt" viewBox="0 0 50.000000 35.000000"
 preserveAspectRatio="xMidYMid meet">

<g transform="translate(0.000000,35.000000) scale(0.100000,-0.100000)"
fill="#000000" stroke="none">
<path d="M100 291 c0 -50 -3 -59 -20 -64 -11 -3 -20 -12 -20 -21 0 -9 -8 -16
-20 -16 -18 0 -20 -7 -20 -75 l0 -75 55 0 c48 0 55 -2 55 -20 0 -19 7 -20 120
-20 113 0 120 1 120 20 0 18 7 20 55 20 l55 0 0 75 c0 68 -2 75 -20 75 -11 0
-20 7 -20 15 0 8 -9 19 -20 25 -16 9 -20 21 -20 65 l0 55 -35 0 c-28 0 -35 -4
-35 -20 0 -13 -7 -20 -20 -20 -13 0 -20 -7 -20 -20 0 -17 -7 -20 -40 -20 -33
0 -40 3 -40 20 0 13 -7 20 -20 20 -13 0 -20 7 -20 20 0 16 -7 20 -35 20 l-35
0 0 -59z m58 22 c2 -13 10 -23 18 -23 8 0 14 -9 14 -20 0 -18 7 -20 60 -20 53
0 60 2 60 20 0 11 7 20 15 20 9 0 15 9 15 25 0 20 5 25 25 25 20 0 25 -5 25
-25 0 -18 -5 -25 -20 -25 -13 0 -20 -7 -20 -20 0 -11 6 -20 14 -20 7 0 16 -9
19 -20 3 -11 12 -20 20 -20 8 0 17 -9 20 -20 3 -13 10 -18 21 -14 14 5 16 -3
16 -55 0 -54 -2 -61 -20 -61 -17 0 -20 7 -20 40 0 29 -4 40 -15 40 -8 0 -16
-4 -16 -10 -1 -5 -3 -14 -4 -20 -1 -5 -3 -19 -4 -30 0 -11 -8 -20 -16 -20 -8
0 -15 -9 -15 -20 0 -17 -7 -20 -45 -20 -38 0 -45 3 -45 20 0 17 7 20 45 20 38
0 45 3 45 20 0 19 -7 20 -100 20 -93 0 -100 -1 -100 -20 0 -17 7 -20 45 -20
38 0 45 -3 45 -20 0 -17 -7 -20 -45 -20 -37 0 -45 3 -45 19 0 10 -9 21 -20 24
-12 3 -19 13 -18 24 3 36 -2 53 -17 53 -11 0 -15 -11 -15 -40 0 -33 -3 -40
-20 -40 -18 0 -20 7 -20 56 0 47 3 57 20 61 11 3 20 12 20 19 0 8 7 14 16 14
9 0 18 9 21 20 3 11 12 20 19 20 8 0 14 9 14 20 0 13 -7 20 -20 20 -15 0 -20
7 -20 26 0 21 4 25 23 22 14 -2 23 -11 25 -25z"/>
<path d="M160 190 c0 -13 7 -20 20 -20 13 0 20 7 20 20 0 13 -7 20 -20 20 -13
0 -20 -7 -20 -20z"/>
<path d="M300 190 c0 -13 7 -20 20 -20 13 0 20 7 20 20 0 13 -7 20 -20 20 -13
0 -20 -7 -20 -20z"/>
</g>
</svg>
